<svg width="24" height="24" viewBox="0 0 24 24" fill="none" xmlns="http://www.w3.org/2000/svg">
<path d="M12 4C16.42 4 20 7.58 20 12C20 16.42 16.42 20 12 20C7.58 20 4 16.42 4 12C4 7.58 7.58 4 12 4Z" stroke="#19B65B" stroke-width="2" stroke-linecap="round" stroke-linejoin="round"/>
<path d="M4.22043 4.2207C-0.0695703 8.5207 -0.0695703 15.4807 4.22043 19.7807" stroke="#19B65B" stroke-width="2" stroke-linecap="round" stroke-linejoin="round"/>
<path d="M19.7803 4.2207C24.0703 8.5207 24.0703 15.4807 19.7803 19.7807" stroke="#19B65B" stroke-width="2" stroke-linecap="round" stroke-linejoin="round"/>
<path d="M10.5 16V8H13.5C14.05 8 14.5 8.45 14.5 9V11C14.5 11.55 14.05 12 13.5 12H10.5" stroke="#19B65B" stroke-width="2" stroke-linecap="round" stroke-linejoin="round"/>
</svg>
