<svg width="24" height="24" viewBox="0 0 24 24" fill="none" xmlns="http://www.w3.org/2000/svg">
<path d="M7 18H10V14H11V11.5C11 10.95 10.8043 10.4793 10.413 10.088C10.0217 9.69667 9.55067 9.50067 9 9.5H8C7.45 9.5 6.97933 9.696 6.588 10.088C6.19667 10.48 6.00067 10.9507 6 11.5V14H7V18ZM8.5 8.5C8.85 8.5 9.146 8.379 9.388 8.137C9.63 7.895 9.75067 7.59933 9.75 7.25C9.74933 6.90067 9.62833 6.60467 9.387 6.362C9.14567 6.11933 8.85 5.99867 8.5 6C8.15 6.00133 7.854 6.12233 7.612 6.363C7.37 6.60367 7.24933 6.89933 7.25 7.25C7.25067 7.60067 7.37167 7.89667 7.613 8.138C7.85433 8.37933 8.15 8.5 8.5 8.5ZM13 11H18L15.5 7L13 11ZM15.5 17L18 13H13L15.5 17ZM5 21C4.45 21 3.97933 20.8043 3.588 20.413C3.19667 20.0217 3.00067 19.5507 3 19V5C3 4.45 3.196 3.97933 3.588 3.588C3.98 3.19667 4.45067 3.00067 5 3H19C19.55 3 20.021 3.196 20.413 3.588C20.805 3.98 21.0007 4.45067 21 5V19C21 19.55 20.8043 20.021 20.413 20.413C20.0217 20.805 19.5507 21.0007 19 21H5ZM5 19H19V5H5V19Z" fill="#19B65B"/>
</svg>
