<svg width="24" height="24" viewBox="0 0 24 24" fill="none" xmlns="http://www.w3.org/2000/svg">
<path d="M14.1753 13.803C14.205 13.8634 14.2096 13.9331 14.188 13.9969C14.1665 14.0607 14.1206 14.1134 14.0603 14.1435L13.7243 14.3115C13.4765 14.4354 13.2032 14.4999 12.9261 14.4999C12.649 14.4999 12.3757 14.4354 12.1278 14.3115L11.4563 13.9755C11.2793 13.8869 11.084 13.8408 10.8861 13.8408C10.6881 13.8408 10.4929 13.8869 10.3158 13.9755L9.64434 14.3115C9.39642 14.4355 9.12303 14.5 8.84584 14.5C8.56864 14.5 8.29525 14.4355 8.04734 14.3115L6.76984 13.673L4.30534 14.1655C4.24087 14.1787 4.17378 14.1665 4.1181 14.1314C4.06241 14.0964 4.02245 14.0411 4.00656 13.9772C3.99068 13.9134 4.0001 13.8458 4.03286 13.7888C4.06562 13.7317 4.11918 13.6895 4.18234 13.671L7.65984 12.626L7.63734 12.5995C6.91084 11.721 6.59584 10.7765 6.54584 9.87548C6.46284 8.37598 7.14734 7.05298 7.41634 6.53298L7.42034 6.52548C7.45084 6.46548 7.47434 6.42048 7.49134 6.38548C7.86834 5.61048 8.81434 5.28648 9.60234 5.64698C10.3943 6.00948 10.7418 6.93298 10.3628 7.71248C10.3275 7.78481 10.2917 7.85731 10.2553 7.92998C9.96534 8.51298 9.68484 9.08898 9.71884 9.70898C9.73484 9.99698 9.82634 10.3105 10.1113 10.6555C10.4123 11.0195 10.9838 11.4815 12.0628 11.9375C12.9983 12.333 13.7483 12.933 14.1753 13.803ZM17.0063 8.30498C17.6826 8.30498 18.3312 8.57364 18.8095 9.05185C19.2877 9.53007 19.5563 10.1787 19.5563 10.855C19.5563 11.5313 19.2877 12.1799 18.8095 12.6581C18.3312 13.1363 17.6826 13.405 17.0063 13.405C16.33 13.405 15.6814 13.1363 15.2032 12.6581C14.725 12.1799 14.4563 11.5313 14.4563 10.855C14.4563 10.1787 14.725 9.53007 15.2032 9.05185C15.6814 8.57364 16.33 8.30498 17.0063 8.30498Z" fill="#19B65B"/>
<path fill-rule="evenodd" clip-rule="evenodd" d="M2.11088 18.6893C2.19701 18.5852 2.32016 18.5185 2.45444 18.5033C2.58872 18.4881 2.72366 18.5256 2.83088 18.6078L3.64238 19.2348C3.86219 19.4037 4.13426 19.4902 4.41125 19.4793C4.68823 19.4683 4.95261 19.3606 5.15838 19.1748L5.20338 19.1348C5.60083 18.7765 6.11699 18.5782 6.65213 18.5782C7.18728 18.5782 7.70344 18.7765 8.10088 19.1348C8.30636 19.3201 8.57321 19.4227 8.84988 19.4227C9.12655 19.4227 9.39341 19.3201 9.59888 19.1348C9.99633 18.7765 10.5125 18.5782 11.0476 18.5782C11.5828 18.5782 12.0989 18.7765 12.4964 19.1348C12.9144 19.5148 13.5784 19.5128 14.0039 19.1258C14.8049 18.3963 16.0639 18.3808 16.8729 19.1168L16.9079 19.1488C17.3099 19.5148 17.9369 19.5038 18.3254 19.1253C19.0814 18.3883 20.2919 18.3428 21.1039 19.0213L21.8209 19.6203C22.0359 19.8003 22.0609 20.1153 21.8764 20.3253C21.7863 20.4262 21.6607 20.4883 21.5258 20.4983C21.3909 20.5084 21.2574 20.4657 21.1534 20.3793L20.4364 19.7803C20.2395 19.6171 19.9893 19.5322 19.7337 19.5418C19.4781 19.5514 19.235 19.6548 19.0509 19.8323C18.2709 20.5923 17.0144 20.6133 16.2084 19.8798L16.1734 19.8483C15.7659 19.4773 15.1184 19.4793 14.7034 19.8568C13.8919 20.5953 12.6164 20.6113 11.7964 19.8653C11.5909 19.6801 11.3241 19.5775 11.0474 19.5775C10.7707 19.5775 10.5039 19.6801 10.2984 19.8653C9.90094 20.2237 9.38478 20.422 8.84963 20.422C8.31449 20.422 7.79833 20.2237 7.40088 19.8653C7.19541 19.6801 6.92855 19.5775 6.65188 19.5775C6.37521 19.5775 6.10836 19.6801 5.90288 19.8653L5.85788 19.9058C5.47062 20.2552 4.97316 20.4578 4.45199 20.4783C3.93083 20.4989 3.41896 20.3361 3.00538 20.0183L2.19438 19.3918C2.14179 19.3519 2.09777 19.3018 2.06496 19.2445C2.03215 19.1872 2.01123 19.1239 2.00344 19.0583C1.99564 18.9928 2.00114 18.9263 2.0196 18.8629C2.03806 18.7995 2.06911 18.7405 2.11088 18.6893ZM2.11088 15.6893C2.19701 15.5852 2.32016 15.5185 2.45444 15.5033C2.58872 15.4881 2.72366 15.5256 2.83088 15.6078L3.64238 16.2348C3.86219 16.4037 4.13426 16.4902 4.41125 16.4793C4.68823 16.4683 4.95261 16.3606 5.15838 16.1748L5.20338 16.1348C5.60083 15.7765 6.11699 15.5782 6.65213 15.5782C7.18728 15.5782 7.70344 15.7765 8.10088 16.1348C8.30636 16.3201 8.57321 16.4227 8.84988 16.4227C9.12655 16.4227 9.39341 16.3201 9.59888 16.1348C9.99633 15.7765 10.5125 15.5782 11.0476 15.5782C11.5828 15.5782 12.0989 15.7765 12.4964 16.1348C12.9144 16.5148 13.5784 16.5128 14.0039 16.1258C14.8049 15.3963 16.0639 15.3808 16.8729 16.1168L16.9079 16.1488C17.3099 16.5148 17.9369 16.5038 18.3254 16.1253C19.0814 15.3883 20.2919 15.3428 21.1039 16.0213L21.8209 16.6203C22.0359 16.8003 22.0609 17.1153 21.8764 17.3253C21.7863 17.4262 21.6607 17.4883 21.5258 17.4983C21.3909 17.5084 21.2574 17.4657 21.1534 17.3793L20.4364 16.7803C20.2395 16.6171 19.9893 16.5322 19.7337 16.5418C19.4781 16.5514 19.235 16.6548 19.0509 16.8323C18.2709 17.5923 17.0144 17.6133 16.2084 16.8798L16.1734 16.8483C15.7659 16.4773 15.1184 16.4793 14.7034 16.8568C13.8919 17.5953 12.6164 17.6113 11.7964 16.8653C11.5909 16.6801 11.3241 16.5775 11.0474 16.5775C10.7707 16.5775 10.5039 16.6801 10.2984 16.8653C9.90094 17.2237 9.38478 17.422 8.84963 17.422C8.31449 17.422 7.79833 17.2237 7.40088 16.8653C7.19541 16.6801 6.92855 16.5775 6.65188 16.5775C6.37521 16.5775 6.10836 16.6801 5.90288 16.8653L5.85788 16.9058C5.47062 17.2552 4.97316 17.4578 4.45199 17.4783C3.93083 17.4989 3.41896 17.3361 3.00538 17.0183L2.19438 16.3918C2.14179 16.3519 2.09777 16.3018 2.06496 16.2445C2.03215 16.1872 2.01123 16.1239 2.00344 16.0583C1.99564 15.9928 2.00114 15.9263 2.0196 15.8629C2.03806 15.7995 2.06911 15.7405 2.11088 15.6893Z" fill="#19B65B"/>
</svg>
