<svg width="24" height="24" viewBox="0 0 24 24" fill="none" xmlns="http://www.w3.org/2000/svg">
<path d="M13.3996 21.8996L11.9996 20.4996L15.5496 16.9496L7.04961 8.44961L3.49961 11.9996L2.09961 10.5996L3.49961 9.14961L2.09961 7.74961L4.19961 5.64961L2.79961 4.19961L4.19961 2.79961L5.64961 4.19961L7.74961 2.09961L9.14961 3.49961L10.5996 2.09961L11.9996 3.49961L8.44961 7.04961L16.9496 15.5496L20.4996 11.9996L21.8996 13.3996L20.4996 14.8496L21.8996 16.2496L19.7996 18.3496L21.1996 19.7996L19.7996 21.1996L18.3496 19.7996L16.2496 21.8996L14.8496 20.4996L13.3996 21.8996Z" fill="#19B65B"/>
</svg>
