<svg width="38" height="38" viewBox="0 0 38 38" fill="none" xmlns="http://www.w3.org/2000/svg">
<rect width="38" height="38" rx="10" fill="#23C267"/>
<path d="M18.9996 14.3925C21.1321 24.8753 16.3173 32.3 16.3173 32.3H20.3408C22.8622 24.3105 21.682 18.649 21.0114 15.77M23.9083 11.8579C24.1363 12.1472 24.3643 12.4502 24.5387 12.767C25.6315 14.5414 26.1393 16.6298 25.9872 18.7235C25.835 20.8173 25.0309 22.8051 23.6937 24.3931C24.2732 22.9504 24.5085 21.3864 24.3802 19.8313C24.2519 18.2762 23.7636 16.7752 22.9561 15.4532C22.8488 15.2741 22.7281 15.1226 22.6208 14.9573C21.8503 13.8511 20.8636 12.9222 19.7238 12.2298C17.793 12.8635 16.1081 14.1109 14.9124 15.792C13.7167 17.4732 13.0721 19.5011 13.0716 21.583C13.0716 22.6024 13.2191 23.5804 13.4874 24.4896C12.3242 22.8283 11.7001 20.8329 11.7036 18.7867C11.7036 15.5496 13.2325 12.6844 15.5796 10.8936C13.6349 10.7421 11.5695 11.1829 9.77231 12.3262C8.94079 12.891 8.21655 13.5384 7.59961 14.2685C8.33726 12.4364 9.61137 10.7972 11.3549 9.66768C13.3667 8.37283 15.6467 7.9458 17.8462 8.2764C17.2963 7.505 16.6257 6.77492 15.821 6.1275C15.0431 5.54895 14.1982 5.0806 13.313 4.75C15.2443 4.8051 17.1756 5.43875 18.8253 6.71983C19.6702 7.36725 20.3408 8.15243 20.8773 8.97893C21.0114 8.97893 21.1321 8.96515 21.2662 8.96515C25.558 8.96515 29.1925 11.8717 30.3996 15.8802C29.6452 14.7872 28.6793 13.8659 27.5624 13.1738C26.4454 12.4817 25.2015 12.0337 23.9083 11.8579Z" fill="white"/>
</svg>
