<svg width="24" height="24" viewBox="0 0 24 24" fill="none" xmlns="http://www.w3.org/2000/svg">
<path d="M12.0003 21C11.3003 21 10.7087 20.7583 10.2253 20.275C9.74201 19.7917 9.50034 19.2 9.50034 18.5C9.50034 17.8 9.74201 17.2083 10.2253 16.725C10.7087 16.2417 11.3003 16 12.0003 16C12.7003 16 13.292 16.2417 13.7753 16.725C14.2587 17.2083 14.5003 17.8 14.5003 18.5C14.5003 19.2 14.2587 19.7917 13.7753 20.275C13.292 20.7583 12.7003 21 12.0003 21ZM12.0003 10C13.2503 10 14.438 10.2 15.5633 10.6C16.6887 11 17.7093 11.55 18.6253 12.25C18.9587 12.5 19.1297 12.8293 19.1383 13.238C19.147 13.6467 19.001 14.0007 18.7003 14.3C18.417 14.5833 18.067 14.7293 17.6503 14.738C17.2337 14.7467 16.8587 14.634 16.5253 14.4C15.892 13.9667 15.192 13.625 14.4253 13.375C13.6587 13.125 12.8503 13 12.0003 13C11.1503 13 10.342 13.125 9.57534 13.375C8.80867 13.625 8.10867 13.9667 7.47534 14.4C7.14201 14.6333 6.76701 14.7417 6.35034 14.725C5.93367 14.7083 5.58367 14.5583 5.30034 14.275C5.01701 13.975 4.87534 13.621 4.87534 13.213C4.87534 12.805 5.04201 12.4757 5.37534 12.225C6.29201 11.525 7.31301 10.979 8.43834 10.587C9.56367 10.195 10.751 9.99933 12.0003 10ZM12.0003 4C14.0837 4 16.0463 4.34167 17.8883 5.025C19.7303 5.70833 21.3843 6.675 22.8503 7.925C23.1837 8.20833 23.3587 8.55833 23.3753 8.975C23.392 9.39167 23.2503 9.75 22.9503 10.05C22.667 10.3333 22.317 10.4793 21.9003 10.488C21.4837 10.4967 21.1087 10.3673 20.7753 10.1C19.5753 9.11667 18.2297 8.35433 16.7383 7.813C15.247 7.27167 13.6677 7.00067 12.0003 7C10.333 6.99933 8.75401 7.27033 7.26334 7.813C5.77267 8.35567 4.42667 9.118 3.22534 10.1C2.89201 10.3667 2.51701 10.496 2.10034 10.488C1.68367 10.48 1.33367 10.334 1.05034 10.05C0.750339 9.75 0.608673 9.39167 0.625339 8.975C0.642006 8.55833 0.817006 8.20833 1.15034 7.925C2.61701 6.675 4.27134 5.70833 6.11334 5.025C7.95534 4.34167 9.91767 4 12.0003 4Z" fill="#19B65B"/>
</svg>
