<svg width="24" height="24" viewBox="0 0 24 24" fill="none" xmlns="http://www.w3.org/2000/svg">
<path d="M4 21C3.71667 21 3.47934 20.904 3.288 20.712C3.09667 20.52 3.00067 20.2827 3 20C2.99934 19.7173 3.09534 19.48 3.288 19.288C3.48067 19.096 3.718 19 4 19H5V4C5 3.71667 5.096 3.47933 5.288 3.288C5.48 3.09667 5.71734 3.00067 6 3H13C13.2833 3 13.521 3.096 13.713 3.288C13.905 3.48 14.0007 3.71733 14 4H18C18.2833 4 18.521 4.096 18.713 4.288C18.905 4.48 19.0007 4.71733 19 5V19H20C20.2833 19 20.521 19.096 20.713 19.288C20.905 19.48 21.0007 19.7173 21 20C20.9993 20.2827 20.9033 20.5203 20.712 20.713C20.5207 20.9057 20.2833 21.0013 20 21H18C17.7167 21 17.4793 20.904 17.288 20.712C17.0967 20.52 17.0007 20.2827 17 20V6H14V20C14 20.2833 13.904 20.521 13.712 20.713C13.52 20.905 13.2827 21.0007 13 21H4ZM12 12C12 11.7167 11.904 11.4793 11.712 11.288C11.52 11.0967 11.2827 11.0007 11 11C10.7173 10.9993 10.48 11.0953 10.288 11.288C10.096 11.4807 10 11.718 10 12C10 12.282 10.096 12.5197 10.288 12.713C10.48 12.9063 10.7173 13.002 11 13C11.2827 12.998 11.5203 12.902 11.713 12.712C11.9057 12.522 12.0013 12.2847 12 12Z" fill="#19B65B"/>
</svg>
