<svg width="24" height="24" viewBox="0 0 24 24" fill="none" xmlns="http://www.w3.org/2000/svg">
<path d="M9 13H11V10.25H13V13H15V8.25L12 6.25L9 8.25V13ZM12 19.35C14.0333 17.4833 15.5417 15.7877 16.525 14.263C17.5083 12.7383 18 11.384 18 10.2C18 8.38333 17.421 6.896 16.263 5.738C15.105 4.58 13.684 4.00067 12 4C10.316 3.99933 8.89533 4.57867 7.738 5.738C6.58067 6.89733 6.00133 8.38467 6 10.2C6 11.3833 6.49167 12.7377 7.475 14.263C8.45833 15.7883 9.96667 17.484 12 19.35ZM12 22C9.31667 19.7167 7.31267 17.596 5.988 15.638C4.66333 13.68 4.00067 11.8673 4 10.2C4 7.7 4.80433 5.70833 6.413 4.225C8.02167 2.74167 9.884 2 12 2C14.116 2 15.9787 2.74167 17.588 4.225C19.1973 5.70833 20.0013 7.7 20 10.2C20 11.8667 19.3377 13.6793 18.013 15.638C16.6883 17.5967 14.684 19.7173 12 22Z" fill="#19B65B"/>
</svg>
